<mxfile host="app.diagrams.net" modified="2024-03-28T00:33:29.727Z" agent="Mozilla/5.0 (Macintosh; Intel Mac OS X 10_15_7) AppleWebKit/537.36 (KHTML, like Gecko) Chrome/123.0.0.0 Safari/537.36" version="24.0.7" etag="MHL73cOTftbaoo8_k-7v" type="github">
  <diagram name="PÃ¡gina-1" id="CAmix4kKs1QM9Kd56lJg">
    <mxGraphModel>
      <root>
        <mxCell id="0" />
        <mxCell id="1" parent="0" />
      </root>
    </mxGraphModel>
  </diagram>
</mxfile>
